<?xml version="1.0" encoding="UTF-8" standalone="no"?>
<!-- Created with Inkscape (http://www.inkscape.org/) -->

<svg
   width="516.80817"
   height="299.01935"
   id="svg8195"
   version="1.1"
   inkscape:version="1.3.2 (091e20ef0f, 2023-11-25)"
   sodipodi:docname="ctreffos-logo.svg"
   inkscape:export-filename="ctreffos-logo.png"
   inkscape:export-xdpi="96"
   inkscape:export-ydpi="96"
   xmlns:inkscape="http://www.inkscape.org/namespaces/inkscape"
   xmlns:sodipodi="http://sodipodi.sourceforge.net/DTD/sodipodi-0.dtd"
   xmlns="http://www.w3.org/2000/svg"
   xmlns:svg="http://www.w3.org/2000/svg"
   xmlns:rdf="http://www.w3.org/1999/02/22-rdf-syntax-ns#"
   xmlns:cc="http://creativecommons.org/ns#"
   xmlns:dc="http://purl.org/dc/elements/1.1/">
  <defs
     id="defs8197" />
  <sodipodi:namedview
     id="base"
     pagecolor="#ffffff"
     bordercolor="#666666"
     borderopacity="1.0"
     inkscape:pageopacity="0.0"
     inkscape:pageshadow="2"
     inkscape:zoom="1.979899"
     inkscape:cx="267.43788"
     inkscape:cy="124.75384"
     inkscape:document-units="px"
     inkscape:current-layer="layer1"
     showgrid="false"
     inkscape:window-width="1920"
     inkscape:window-height="1011"
     inkscape:window-x="0"
     inkscape:window-y="0"
     inkscape:window-maximized="1"
     fit-margin-top="20"
     fit-margin-left="20"
     fit-margin-right="20"
     fit-margin-bottom="20"
     inkscape:showpageshadow="2"
     inkscape:pagecheckerboard="0"
     inkscape:deskcolor="#d1d1d1" />
  <metadata
     id="metadata8200">
    <rdf:RDF>
      <cc:Work
         rdf:about="">
        <dc:format>image/svg+xml</dc:format>
        <dc:type
           rdf:resource="http://purl.org/dc/dcmitype/StillImage" />
        <dc:title />
      </cc:Work>
    </rdf:RDF>
  </metadata>
  <g
     inkscape:label="Layer 1"
     inkscape:groupmode="layer"
     id="layer1"
     transform="translate(-103.21244,-687.71875)">
    <text
       xml:space="preserve"
       style="font-size:38.04227066px;font-style:normal;font-weight:normal;line-height:107%;letter-spacing:0px;word-spacing:0px;fill:#000000;fill-opacity:1;stroke:none;font-family:Sans;"
       x="193.37878"
       y="770.16583"
       id="text2985-3-2-5-5"
       transform="scale(0.99165286,1.0084174)"><tspan
         sodipodi:role="line"
         id="tspan2987-6-4-2-8"
         x="193.37878"
         y="770.16583"
         style="font-size:68.47608948px;font-style:normal;font-variant:normal;font-weight:normal;font-stretch:normal;line-height:107%;letter-spacing:0px;stroke:none;font-family:DejaVu Sans Mono;-inkscape-font-specification:DejaVu Sans Mono;">CHAOS</tspan><tspan
         sodipodi:role="line"
         x="193.37878"
         y="843.43524"
         id="tspan2989-4-8-9-5"
         style="font-size:68.47608948px;font-style:normal;font-variant:normal;font-weight:normal;font-stretch:normal;line-height:107%;letter-spacing:0px;stroke:none;font-family:DejaVu Sans Mono;-inkscape-font-specification:DejaVu Sans Mono;">TREFF</tspan><tspan
         sodipodi:role="line"
         x="193.37878"
         y="916.70465"
         id="tspan2991-0-3-8-3"
         style="font-size:68.47608948px;font-style:normal;font-variant:normal;font-weight:normal;font-stretch:normal;line-height:107%;letter-spacing:0px;stroke:none;font-family:DejaVu Sans Mono;-inkscape-font-specification:DejaVu Sans Mono;"> OSNABRUCK</tspan></text>
    <path
       style="color:#000000;font-style:normal;font-variant:normal;font-weight:normal;font-stretch:normal;font-size:medium;line-height:normal;font-family:sans-serif;text-indent:0;text-align:start;text-decoration:none;text-decoration-line:none;text-decoration-style:solid;text-decoration-color:#000000;letter-spacing:normal;word-spacing:normal;text-transform:none;direction:ltr;block-progression:tb;writing-mode:lr-tb;baseline-shift:baseline;text-anchor:start;white-space:normal;clip-rule:nonzero;display:inline;overflow:visible;visibility:visible;opacity:1;isolation:auto;mix-blend-mode:normal;color-interpolation:sRGB;color-interpolation-filters:linearRGB;solid-color:#000000;solid-opacity:1;fill:#000000;fill-opacity:1;fill-rule:nonzero;stroke:none;stroke-width:3.1730001;stroke-linecap:butt;stroke-linejoin:miter;stroke-miterlimit:4;stroke-dasharray:none;stroke-dashoffset:0;stroke-opacity:1;marker:none;color-rendering:auto;image-rendering:auto;shape-rendering:auto;text-rendering:auto;enable-background:accumulate"
       d="m 175.00586,707.72656 0,143.67188 3.17187,0 0,-140.49805 228.9961,0 0,140.49805 3.17383,0 0,-143.67188 -235.3418,0 z m 63.62891,232.16992 0,3.17383 112.04101,0 0,-3.17383 -112.04101,0 z"
       id="rect7647-4-3-9-1"
       inkscape:connector-curvature="0" />
    <text
       id="text3488-7-1"
       y="891.12744"
       x="490.53644"
       style="font-style:normal;font-weight:normal;font-size:23.37206459px;line-height:125%;font-family:Sans;letter-spacing:0px;word-spacing:0px;fill:#000000;fill-opacity:1;stroke:none"
       xml:space="preserve"><tspan
         style="font-style:normal;font-variant:normal;font-weight:normal;font-stretch:normal;font-family:'DejaVu Sans Mono';-inkscape-font-specification:'DejaVu Sans Mono'"
         y="891.12744"
         x="490.53644"
         id="tspan3490-1-3"
         sodipodi:role="line">E</tspan></text>
    <g
       style="fill:#000000;fill-opacity:1;stroke:none"
       transform="matrix(0.00471677,0,0,-0.00493594,106.35493,986.88892)"
       id="g4157">
      <path
         d="M 14599,24965 C 10328.712,24866.305 6187.2604,22100.655 4704.2656,18054.512 3299.8715,14451.599 4251.8921,10107.861 6996.25,7389.75 10277.773,3943.8802 15828.154,3082.4683 20046.375,5236.875 c 3560.558,1712.3352 6043.877,5548.239 5887.609,9530.215 -43.55,4168.335 -2963.559,8003.165 -6828.984,9442.91 -1431.249,555.867 -2972.85,802.954 -4506,755 z m 866,-629 c 4138.559,-120.594 8121.617,-2928.753 9366.521,-6922.555 1160.904,-3455.794 52.625,-7489.6527 -2642.271,-9928.4294 C 18904.338,4343.3763 13538.373,3793.4652 9649.875,6118.375 6322.8622,7987.1771 4245.6258,11912.707 4790,15720 c 486.4969,4211.758 4039.9142,7699.619 8164.375,8430.75 825.44,161.876 1670.544,217.953 2510.625,185.25 z"
         id="path4159"
         inkscape:connector-curvature="0"
         style="fill:#000000;fill-opacity:1" />
      <path
         d="M 14569,23976 C 10709.259,23856.939 6979.6966,21341.49 5659,17672.125 4378.7925,14340.785 5330.6429,10335.954 7922.7031,7893.7656 10960.884,4859.514 15980.618,4186.8412 19750.689,6205.9141 c 3175.388,1610.7462 5341.823,5101.6709 5147.811,8687.2269 -111.827,3748.721 -2770.546,7168.751 -6266.172,8431.078 -1292.671,494.217 -2682.726,698.127 -4063.328,651.781 z m 901,-630 c 3747.827,-128.653 7340.674,-2712.594 8411.312,-6348.08 C 24898.589,13818.991 23781.934,10140.61 21245,7991 18146.602,5215.3798 13192.857,4908.3071 9753,7232 6936.634,9026.335 5288.1393,12513.851 5848.3281,15826.984 c 528.1956,3644.555 3598.5138,6630.761 7172.9219,7326.891 803.993,169.284 1628.38,228.451 2448.75,192.125 z"
         id="path4161"
         inkscape:connector-curvature="0"
         style="fill:#000000;fill-opacity:1" />
      <path
         inkscape:connector-curvature="0"
         d="m 14738,22965 c -2,-2 -79,-6 -173,-9 -93,-4 -186,-8 -205,-10 -19,-2 -78,-7 -130,-11 -96,-7 -152,-12 -205,-20 -16,-2 -61,-7 -100,-10 -38,-3 -81,-8 -95,-10 -38,-7 -80,-13 -135,-20 -27,-3 -75,-10 -105,-15 -30,-5 -73,-12 -95,-15 -22,-3 -53,-9 -70,-12 -16,-3 -40,-7 -52,-9 -11,-1 -29,-4 -40,-8 -10,-3 -38,-8 -61,-11 -24,-3 -96,-18 -160,-31 -65,-14 -128,-28 -142,-30 -14,-3 -43,-10 -65,-16 -22,-5 -47,-11 -55,-13 -206,-40 -970,-275 -1135,-350 -16,-7 -70,-29 -120,-48 -353,-136 -859,-383 -1200,-586 -60,-35 -119,-70 -130,-76 -203,-111 -771,-514 -1035,-734 -345,-286 -681,-608 -935,-895 -39,-43 -81,-91 -95,-105 -14,-15 -43,-49 -65,-76 -22,-28 -46,-56 -53,-64 -49,-52 -311,-391 -413,-536 -72,-101 -189,-275 -189,-281 0,-3 -11,-20 -24,-37 -29,-40 -209,-337 -261,-432 -20,-38 -50,-92 -65,-120 -194,-351 -416,-865 -554,-1278 -79,-237 -176,-581 -211,-743 -2,-11 -15,-71 -29,-134 -26,-118 -74,-378 -82,-440 -3,-19 -7,-46 -9,-60 -5,-28 -31,-224 -40,-310 -4,-30 -8,-66 -10,-80 -2,-14 -7,-70 -10,-125 -4,-55 -9,-118 -11,-140 -22,-231 -22,-865 1,-1120 2,-27 7,-84 10,-125 3,-41 7,-88 9,-105 2,-16 7,-59 10,-95 4,-36 8,-76 11,-89 2,-12 7,-52 11,-89 3,-37 7,-69 9,-72 2,-3 6,-30 10,-60 4,-30 16,-104 26,-165 11,-60 22,-121 24,-135 2,-14 13,-70 25,-125 12,-55 24,-111 26,-125 4,-20 78,-319 88,-355 2,-5 6,-23 11,-40 28,-113 106,-360 167,-535 170,-487 371,-921 663,-1435 120,-211 451,-707 527,-789 10,-11 18,-23 18,-27 0,-4 6,-14 13,-21 7,-7 44,-53 82,-103 249,-320 633,-738 930,-1008 190,-173 198,-181 265,-237 36,-30 67,-57 70,-60 13,-13 216,-174 310,-246 336,-257 729,-512 1108,-720 164,-91 500,-260 612,-308 400,-174 664,-276 975,-374 264,-84 587,-173 745,-206 14,-3 90,-19 170,-36 154,-33 247,-51 400,-75 52,-9 106,-18 120,-21 14,-2 48,-6 75,-9 28,-3 61,-7 75,-10 31,-6 117,-16 250,-30 30,-3 71,-8 90,-10 19,-2 71,-7 115,-10 44,-3 100,-8 125,-10 286,-25 1031,-25 1290,0 19,2 76,6 125,10 50,4 104,8 120,10 17,1 59,6 95,9 94,10 141,16 175,21 17,3 51,7 77,10 26,3 63,7 82,10 20,3 53,7 74,10 66,9 276,46 324,56 25,6 57,12 70,14 30,4 161,31 268,57 47,11 94,21 104,23 10,3 55,14 100,26 45,11 90,23 102,25 87,16 558,163 754,235 210,76 234,86 375,143 287,118 766,348 945,454 19,11 58,33 85,48 28,14 62,35 77,45 14,11 28,19 31,19 5,0 121,68 177,105 19,12 80,51 135,86 192,122 691,479 725,518 3,3 37,32 76,63 39,31 77,62 85,70 8,7 34,30 59,50 51,41 65,53 180,158 46,41 92,83 104,93 76,65 417,412 551,561 44,49 85,94 90,100 37,41 254,307 311,381 37,50 71,92 74,95 3,3 21,28 39,55 19,28 37,52 40,55 18,16 191,271 296,435 208,327 439,758 580,1080 7,17 22,50 33,75 57,130 207,519 242,630 5,14 23,70 40,125 33,104 89,289 95,315 1,8 16,67 33,130 42,161 87,362 116,520 25,134 28,151 41,240 4,25 9,52 10,60 2,8 6,38 9,65 4,28 9,61 11,75 2,14 7,52 10,85 3,33 7,67 10,75 2,8 6,51 10,95 3,44 8,103 11,130 31,295 36,940 9,1245 -2,25 -7,83 -11,130 -7,90 -8,100 -18,195 -7,67 -25,207 -31,245 -2,14 -7,45 -10,69 -6,51 -12,88 -25,156 -5,28 -11,66 -14,85 -4,28 -54,271 -73,355 -2,11 -6,31 -9,45 -6,31 -52,214 -64,255 -5,17 -16,55 -24,85 -87,318 -231,722 -379,1065 -68,158 -222,477 -250,518 -10,15 -20,33 -21,40 -1,7 -11,28 -22,47 -12,19 -41,71 -64,115 -24,44 -68,120 -97,168 -29,48 -53,90 -53,92 0,2 -13,23 -28,47 -16,24 -62,95 -103,158 -74,116 -264,392 -303,442 -12,14 -31,39 -42,55 -381,508 -866,1018 -1354,1423 -74,61 -145,120 -157,130 -39,33 -265,205 -362,274 -419,303 -989,637 -1426,836 -38,18 -97,45 -130,60 -317,148 -775,315 -1220,445 -179,52 -587,151 -704,170 -19,3 -37,7 -40,9 -3,2 -28,7 -55,10 -28,4 -79,13 -115,21 -36,7 -102,19 -146,25 -44,7 -87,13 -95,15 -8,1 -40,6 -70,10 -30,4 -63,9 -72,10 -9,2 -41,6 -70,9 -29,4 -69,8 -88,11 -66,8 -125,15 -190,20 -36,3 -85,7 -110,10 -25,3 -85,7 -135,10 -49,3 -128,8 -175,11 -81,6 -727,13 -732,9 z m -447,-609 c 8,-10 3,-1146 -5,-1251 -3,-38 -7,-95 -10,-125 -3,-30 -8,-89 -11,-130 -3,-41 -8,-91 -10,-110 -3,-19 -7,-55 -10,-80 -9,-81 -16,-124 -25,-175 -5,-27 -12,-66 -15,-85 -9,-53 -43,-198 -61,-260 -8,-30 -19,-68 -24,-85 -19,-70 -63,-180 -112,-285 -35,-72 -142,-241 -179,-280 -13,-14 -37,-40 -53,-57 l -28,-32 34,-43 c 20,-24 74,-100 122,-169 375,-550 616,-1170 706,-1814 6,-44 13,-91 15,-105 2,-14 6,-52 9,-85 4,-33 8,-76 11,-95 4,-33 7,-78 20,-296 l 6,-92 -48,-6 c -372,-52 -798,-239 -1108,-486 -44,-35 -137,-122 -207,-192 -70,-70 -129,-128 -133,-128 -10,0 -219,132 -360,227 -129,88 -385,280 -445,335 -14,13 -59,52 -100,88 -185,160 -404,395 -560,600 -36,47 -67,87 -70,90 -14,13 -153,225 -210,320 -35,58 -99,175 -143,260 -44,85 -84,163 -88,172 -7,13 -15,15 -32,9 -12,-5 -45,-12 -72,-16 -28,-4 -63,-9 -80,-11 -78,-12 -333,-5 -425,11 -14,2 -43,7 -65,10 -147,21 -439,102 -654,181 -335,124 -816,351 -1276,604 -27,15 -126,69 -218,120 l -168,92 17,26 c 44,68 380,493 413,522 3,3 38,41 76,85 147,167 375,400 555,565 57,52 110,102 119,110 89,83 459,383 575,465 15,11 48,35 72,53 134,100 582,390 709,458 11,5 41,22 66,37 124,73 492,261 629,321 36,16 94,42 130,59 259,118 675,267 1075,386 242,72 778,190 985,217 19,2 60,9 90,14 30,5 77,13 105,16 27,3 63,7 80,10 16,2 55,6 85,9 30,3 66,8 79,10 12,2 60,7 105,11 44,3 83,8 85,10 6,5 26,0 32,-10 z m 1554,-2 c 28,-3 66,-7 85,-9 19,-3 60,-7 90,-10 68,-7 198,-24 231,-30 13,-3 44,-7 69,-10 25,-3 52,-8 60,-10 8,-3 31,-7 50,-9 20,-3 76,-12 125,-21 50,-10 101,-19 115,-22 14,-2 68,-13 120,-24 52,-11 104,-22 115,-24 49,-10 318,-78 400,-101 558,-157 1027,-340 1550,-604 279,-141 445,-235 678,-384 87,-56 166,-106 175,-111 73,-44 357,-249 517,-374 96,-75 291,-235 305,-251 3,-3 39,-34 80,-70 242,-211 572,-548 806,-825 119,-140 348,-434 342,-440 -5,-5 -162,-95 -241,-138 -37,-21 -82,-46 -100,-56 -121,-69 -183,-104 -262,-146 -49,-26 -94,-51 -100,-56 -5,-4 -121,-64 -256,-133 -354,-180 -643,-307 -879,-386 -115,-38 -332,-99 -380,-106 -19,-3 -41,-7 -48,-9 -7,-3 -34,-7 -60,-11 -26,-3 -67,-10 -92,-14 -51,-9 -392,-7 -430,4 -14,3 -40,8 -59,11 -19,2 -36,7 -39,10 -3,2 -32,-50 -65,-118 -336,-686 -822,-1244 -1490,-1710 -115,-81 -359,-239 -409,-266 -26,-13 -29,-10 -165,126 -291,292 -610,483 -995,597 -136,40 -180,50 -280,67 l -77,13 4,85 c 3,87 14,236 20,301 2,19 6,64 10,100 5,53 51,349 70,451 15,78 98,389 130,484 126,373 321,764 535,1070 33,47 71,101 83,118 12,18 33,44 46,60 l 25,27 -35,37 c -60,65 -78,88 -137,175 -95,140 -173,312 -235,520 -37,120 -91,357 -102,443 -3,28 -8,57 -10,65 -2,8 -7,35 -10,60 -3,25 -7,56 -9,70 -4,24 -13,103 -21,200 -3,25 -7,70 -10,100 -2,30 -7,100 -10,155 -3,55 -8,136 -10,180 -3,44 -7,279 -10,523 l -5,443 72,-6 c 40,-3 96,-8 123,-11 z m 6646,-4541 c 137,-285 265,-600 356,-873 25,-74 46,-139 48,-145 1,-5 5,-17 8,-25 3,-8 15,-49 27,-90 12,-41 28,-95 36,-120 7,-25 18,-63 23,-85 5,-22 23,-96 41,-165 17,-69 35,-143 39,-165 5,-22 16,-74 24,-115 18,-84 53,-282 62,-350 3,-25 8,-52 10,-60 2,-8 7,-39 10,-69 4,-30 8,-61 10,-70 2,-9 6,-47 9,-83 4,-37 8,-75 10,-85 2,-10 7,-65 11,-122 4,-57 8,-113 10,-123 23,-117 23,-913 0,-1118 -2,-19 -6,-71 -10,-115 -3,-44 -8,-91 -10,-105 -2,-14 -6,-52 -10,-85 -8,-84 -15,-136 -20,-165 -2,-14 -7,-45 -10,-70 -9,-68 -37,-238 -50,-300 -3,-14 -8,-38 -11,-55 -88,-492 -310,-1183 -544,-1690 -82,-177 -92,-196 -104,-186 -10,8 -38,23 -236,128 -47,25 -98,54 -115,63 -16,10 -66,37 -110,60 -375,201 -821,473 -1075,656 -148,106 -313,246 -441,374 -197,195 -306,350 -385,544 -37,90 -44,101 -65,99 -13,-1 -66,-5 -116,-8 -51,-4 -105,-8 -120,-10 -41,-6 -477,-6 -548,0 -244,18 -318,27 -485,55 -410,69 -767,176 -1179,352 -134,58 -417,191 -429,203 -2,2 4,20 13,41 55,130 115,367 131,519 3,33 8,71 10,85 5,30 5,313 0,355 -2,17 -6,55 -10,85 -3,30 -8,66 -11,80 -3,14 -9,50 -15,80 -13,72 -61,238 -94,324 -14,38 -25,70 -24,72 7,6 260,128 310,150 32,13 83,36 114,50 183,84 608,231 774,269 8,2 53,12 100,23 84,20 213,46 280,57 19,3 42,8 50,10 26,7 236,32 331,40 186,16 539,21 669,11 25,-2 86,-7 136,-10 49,-4 100,-8 111,-11 25,-4 38,9 47,50 11,47 89,206 138,282 144,223 358,442 658,676 185,145 629,437 875,577 17,9 91,52 165,95 74,42 169,95 210,118 41,22 80,43 85,47 6,4 46,27 90,50 44,24 94,52 110,62 17,10 33,18 37,18 4,0 26,-39 49,-87 z m -14845,-18 c 57,-30 118,-63 136,-73 18,-10 78,-43 133,-72 55,-29 105,-56 110,-60 6,-4 39,-23 75,-42 188,-102 428,-243 605,-353 117,-74 366,-240 405,-271 8,-7 74,-59 145,-115 121,-96 349,-313 423,-404 102,-125 220,-331 253,-443 9,-31 17,-41 28,-38 14,5 88,11 261,22 198,13 590,2 775,-21 78,-10 192,-26 211,-29 10,-2 44,-7 74,-12 30,-4 57,-8 60,-9 3,-1 32,-7 65,-14 419,-88 796,-216 1205,-408 203,-95 241,-117 234,-132 -65,-157 -127,-402 -140,-551 -3,-36 -7,-71 -10,-79 -5,-16 -5,-310 0,-356 2,-16 7,-57 11,-90 16,-141 61,-323 119,-480 14,-38 24,-70 22,-72 -18,-18 -448,-214 -603,-274 -13,-5 -33,-13 -45,-18 -85,-36 -475,-161 -547,-176 -9,-2 -36,-8 -61,-14 -25,-7 -52,-13 -60,-15 -45,-11 -221,-46 -255,-51 -23,-3 -50,-7 -60,-9 -109,-20 -319,-43 -470,-51 -106,-6 -513,-6 -545,-1 -14,3 -68,8 -120,11 -52,4 -104,8 -115,8 -16,2 -26,-14 -53,-86 -123,-326 -434,-671 -922,-1024 -211,-153 -536,-360 -805,-514 -66,-38 -406,-228 -470,-264 -33,-18 -81,-44 -107,-59 -26,-14 -49,-26 -52,-26 -12,0 -188,387 -261,576 -26,65 -51,128 -55,139 -57,136 -226,670 -244,769 -2,11 -9,41 -16,66 -15,54 -11,38 -55,238 -33,151 -79,399 -89,482 -2,19 -12,91 -20,160 -26,202 -26,199 -41,400 -25,321 -24,849 0,1125 2,22 7,72 10,110 7,83 14,147 20,194 2,19 7,59 10,90 3,31 7,67 9,81 3,14 19,109 36,213 30,180 100,519 121,583 5,17 12,41 14,54 24,125 197,669 260,815 7,17 34,84 60,150 41,102 109,258 190,432 11,23 24,43 28,43 5,0 55,-25 113,-55 z m 7510,-1649 c 141,-12 282,-42 419,-88 606,-206 1043,-726 1125,-1337 18,-133 15,-352 -6,-454 -2,-12 -7,-38 -10,-57 -3,-19 -14,-69 -26,-110 -75,-276 -226,-528 -440,-735 -279,-270 -644,-439 -1038,-480 -67,-6 -290,-7 -345,0 -109,13 -129,16 -176,25 -514,98 -969,434 -1197,885 -122,241 -174,458 -175,725 0,427 183,851 495,1145 109,103 130,120 226,185 198,133 433,231 647,269 33,6 71,13 85,16 14,3 66,8 115,11 50,4 91,7 92,8 4,3 141,-2 209,-8 z m -1821,-3161 c 127,-127 288,-256 406,-324 183,-107 309,-167 465,-221 120,-41 326,-94 412,-105 l 53,-7 -5,-86 c -18,-302 -22,-341 -51,-552 -22,-154 -60,-349 -96,-495 -30,-117 -132,-439 -162,-506 -8,-19 -34,-79 -57,-134 -116,-274 -306,-601 -492,-849 l -59,-78 23,-26 c 13,-14 30,-33 39,-41 49,-47 171,-235 216,-331 75,-162 150,-385 177,-526 2,-11 9,-37 14,-59 6,-22 13,-53 16,-70 2,-16 11,-68 19,-115 13,-75 20,-121 33,-220 2,-14 8,-74 14,-135 6,-60 13,-130 15,-154 3,-23 7,-89 10,-145 3,-55 8,-137 10,-181 3,-44 7,-279 10,-523 l 5,-443 -78,6 c -85,7 -127,12 -187,19 -22,3 -68,8 -102,11 -34,3 -70,8 -81,10 -10,2 -43,6 -73,10 -229,27 -663,111 -937,181 -213,54 -251,65 -557,160 -422,132 -993,379 -1415,611 -234,129 -244,135 -261,149 -8,8 -18,14 -22,14 -23,0 -470,296 -677,449 -139,102 -456,355 -490,391 -3,3 -25,23 -50,44 -214,186 -530,501 -720,717 -105,119 -117,134 -190,224 -35,44 -67,82 -70,85 -3,3 -27,34 -55,70 -27,36 -53,70 -57,75 -75,96 -90,116 -87,120 5,5 260,150 279,158 8,4 29,15 45,25 169,104 794,431 1011,530 338,154 771,298 979,326 22,3 50,7 62,10 34,7 171,17 253,17 103,1 225,-12 309,-33 7,-2 49,68 100,167 88,171 172,316 264,455 51,75 185,261 196,270 3,3 18,21 33,40 15,19 38,49 53,65 14,17 50,57 78,90 65,76 293,303 376,375 35,30 73,63 85,74 34,30 275,218 320,249 142,98 267,181 375,248 l 124,77 25,-31 c 15,-18 71,-77 127,-132 z m 3628,73 c 563,-349 1024,-759 1366,-1218 65,-86 251,-364 251,-374 0,-3 17,-34 38,-68 21,-35 72,-130 113,-213 l 75,-150 60,12 c 156,33 392,34 574,3 30,-5 71,-11 90,-14 100,-15 425,-106 545,-151 224,-86 299,-116 450,-182 210,-93 668,-325 1000,-507 138,-76 254,-141 258,-145 11,-11 -258,-366 -384,-506 -15,-16 -48,-55 -74,-85 -183,-212 -485,-516 -715,-719 -52,-46 -109,-96 -126,-112 -18,-15 -90,-74 -162,-132 -623,-500 -1261,-882 -2005,-1198 -76,-33 -141,-59 -144,-59 -3,0 -19,-6 -36,-14 -160,-70 -803,-282 -922,-303 -16,-3 -38,-9 -47,-14 -10,-5 -18,-8 -18,-5 0,3 -23,-2 -52,-10 -28,-9 -59,-17 -67,-19 -9,-2 -88,-19 -176,-39 -88,-19 -173,-37 -190,-40 -16,-3 -41,-8 -55,-11 -21,-4 -72,-13 -175,-31 -11,-1 -33,-5 -50,-8 -16,-2 -43,-7 -60,-10 -16,-3 -68,-10 -115,-16 -47,-6 -96,-13 -110,-15 -14,-2 -50,-7 -80,-10 -30,-3 -66,-7 -80,-10 -22,-3 -154,-15 -215,-19 -20,-1 -20,5 -20,544 0,300 4,601 8,670 14,235 23,343 37,450 6,41 12,95 15,120 3,25 7,52 10,60 2,8 7,35 10,60 8,59 52,261 73,330 8,30 17,60 18,67 6,36 91,244 131,320 56,108 107,184 184,273 l 59,69 -58,78 c -157,210 -285,420 -407,668 -227,459 -355,906 -420,1470 -3,28 -7,66 -10,85 -4,34 -9,109 -20,301 l -6,96 48,7 c 26,4 55,9 63,11 8,2 31,6 50,10 323,59 689,228 980,453 88,69 330,304 330,322 0,22 37,6 163,-72 z"
         id="path4163"
         style="fill:#000000;fill-opacity:1" />
      <path
         d="m 14898,15735 c -396.434,-32.686 -775.579,-248.806 -989.709,-586.736 -136.845,-204.824 -200.269,-453.59 -180.988,-699.006 13.756,-494.646 387.992,-936.154 850.445,-1087.412 345.317,-113.288 737.426,-83.933 1056.55,93 396.086,214.126 675.669,658.133 638.738,1115 -7.792,419.641 -274.555,810.492 -640.78,1005.718 -222.977,126.944 -479.886,172.515 -734.256,159.436 z m 257,-586 c 283.033,-65.105 529.107,-322.928 520.987,-623.155 15.983,-341.776 -288.111,-644.049 -623.862,-657.345 -296.719,-30.025 -598.455,160.072 -696.576,442.416 -72.26,210.646 -28.515,462.379 130.131,623.234 162.6,192.517 427.08,264.228 669.32,214.85 z"
         id="path4165"
         inkscape:connector-curvature="0"
         style="fill:#000000;fill-opacity:1" />
    </g>
  </g>
</svg>
