<?xml version="1.0" encoding="utf-8"?>
<!-- Generator: Adobe Illustrator 19.0.0, SVG Export Plug-In . SVG Version: 6.00 Build 0)  -->
<svg version="1.1" xmlns="http://www.w3.org/2000/svg" xmlns:xlink="http://www.w3.org/1999/xlink" x="0px" y="0px"
	 viewBox="-47 248 377.4 299" style="enable-background:new -47 248 377.4 299;" xml:space="preserve">
<style type="text/css">
	.st0{enable-background:new    ;}
	.st1{fill:none;stroke:#000000;stroke-width:3.173;}
	.st2{fill:none;stroke:#000000;stroke-width:3;stroke-miterlimit:10;}
	.st3{display:none;}
	.st4{display:inline;}
	.st5{fill-opacity:0.612;stroke:#000000;stroke-width:2.797;}
	.st6{stroke:#000000;stroke-width:2.797;}
	.st7{display:none;stroke:#000000;}
	.st8{display:inline;fill:none;stroke:#000000;stroke-width:2.797;}
</style>
<g id="chaOStalks" sodipodi:docname="ctreffos-logo.svg" inkscape:version="0.48.5 r10040" xmlns:sodipodi="http://sodipodi.sourceforge.net/DTD/sodipodi-0.dtd" xmlns:svg="http://www.w3.org/2000/svg" xmlns:dc="http://purl.org/dc/elements/1.1/" xmlns:rdf="http://www.w3.org/1999/02/22-rdf-syntax-ns#" xmlns:cc="http://creativecommons.org/ns#" xmlns:inkscape="http://www.inkscape.org/namespaces/inkscape">
	
		<sodipodi:namedview  id="base" fit-margin-bottom="20" fit-margin-right="20" inkscape:window-maximized="1" inkscape:window-y="0" inkscape:current-layer="layer1" inkscape:window-x="0" inkscape:pageshadow="2" inkscape:document-units="px" inkscape:pageopacity="0.0" inkscape:window-height="879" inkscape:window-width="1600" inkscape:cx="729.72503" pagecolor="#ffffff" bordercolor="#666666" inkscape:cy="310.54106" fit-margin-top="20" inkscape:zoom="0.49497475" showgrid="false" borderopacity="1.0" fit-margin-left="20">
		</sodipodi:namedview>
	<g id="layer1" transform="translate(-103.21244,-687.71875)" inkscape:groupmode="layer" inkscape:label="Layer 1">
		<g class="st0">
			<path d="M179.9,1022.7c-1.6,1-3.3,1.7-5.1,2.2c-1.7,0.5-3.5,0.7-5.3,0.7c-5.7,0-10.2-1.8-13.5-5.3c-3.2-3.5-4.9-8.4-4.9-14.6
				c0-6.2,1.6-11.1,4.9-14.6s7.7-5.3,13.5-5.3c1.8,0,3.5,0.2,5.2,0.7c1.7,0.5,3.4,1.2,5.1,2.2v6.5c-1.6-1.5-3.2-2.5-4.9-3.2
				s-3.5-1-5.5-1c-3.8,0-6.8,1.3-8.8,3.8c-2.1,2.5-3.1,6.1-3.1,10.8c0,4.7,1,8.2,3.1,10.8c2.1,2.5,5,3.8,8.8,3.8c2.1,0,4-0.3,5.7-1
				c1.7-0.7,3.2-1.7,4.7-3.1V1022.7z"/>
			<path d="M220.5,1001.2v23.4h-6.1v-23.4c0-3.4-0.6-5.9-1.8-7.5c-1.2-1.6-3-2.4-5.5-2.4c-2.9,0-5,1-6.6,3.1c-1.5,2.1-2.3,5-2.3,8.9
				v21.3h-6.1v-52.5h6.1v20.4c1.1-2.2,2.6-3.8,4.4-4.9c1.9-1.1,4.1-1.7,6.6-1.7c3.8,0,6.6,1.3,8.5,3.8
				C219.6,992.3,220.5,996.1,220.5,1001.2z"/>
			<path d="M261.6,1003.1v21.5h-6.1v-5.6c-1.3,2.2-2.9,3.9-4.9,5c-2,1.1-4.4,1.6-7.2,1.6c-3.8,0-6.8-1.1-9.1-3.3
				c-2.3-2.2-3.4-5.1-3.4-8.7c0-4.2,1.4-7.4,4.2-9.6c2.8-2.2,6.8-3.3,12.2-3.3h8.2v-1c0-3-0.8-5.2-2.3-6.6c-1.5-1.4-3.8-2-7.1-2
				c-2.1,0-4.2,0.3-6.3,0.9s-4.2,1.5-6.2,2.7v-6.2c2.3-0.9,4.4-1.5,6.5-2c2.1-0.4,4.1-0.7,6-0.7c3.1,0,5.7,0.5,7.9,1.4
				c2.2,0.9,3.9,2.3,5.3,4.1c0.8,1.1,1.4,2.5,1.8,4.2C261.5,997.3,261.6,999.8,261.6,1003.1z M249.8,1005.6h-2c-3.6,0-6.2,0.6-8,1.9
				c-1.8,1.3-2.7,3.2-2.7,5.7c0,2.3,0.7,4,2,5.3c1.3,1.3,3.2,1.9,5.6,1.9c3.4,0,6-1.2,7.9-3.6c1.9-2.4,2.9-5.6,2.9-9.8v-1.4H249.8z"
				/>
			<path d="M304.4,999.5c0,8.8-1.4,15.3-4.1,19.6c-2.7,4.3-6.9,6.5-12.5,6.5s-9.7-2.1-12.5-6.4s-4.1-10.8-4.1-19.7
				c0-8.8,1.4-15.3,4.1-19.7c2.7-4.3,6.9-6.5,12.5-6.5c5.6,0,9.8,2.2,12.5,6.5C303,984.2,304.4,990.7,304.4,999.5z M297.4,999.5
				c0-7.4-0.7-12.7-2.2-15.8c-1.5-3.2-3.9-4.8-7.3-4.8c-3.4,0-5.8,1.6-7.3,4.8c-1.5,3.2-2.2,8.5-2.2,15.8c0,7.4,0.7,12.6,2.2,15.8
				c1.5,3.2,3.9,4.8,7.3,4.8c3.4,0,5.9-1.6,7.3-4.7C296.7,1012.2,297.4,1006.9,297.4,999.5z"/>
			<path d="M341.8,976v6.9c-2-1.3-4.1-2.3-6.1-3c-2-0.7-4.1-1-6.2-1c-3.2,0-5.7,0.7-7.5,2.2c-1.8,1.5-2.8,3.5-2.8,6.1
				c0,2.2,0.6,3.9,1.8,5.1c1.2,1.2,3.5,2.1,6.7,2.9l3.5,0.8c4.6,1.1,8,2.8,10.1,5.2c2.1,2.4,3.2,5.6,3.2,9.6c0,4.8-1.5,8.4-4.4,11
				c-2.9,2.5-7.2,3.8-12.7,3.8c-2.3,0-4.7-0.3-7-0.8c-2.3-0.5-4.7-1.3-7.1-2.3v-7.2c2.5,1.6,4.9,2.8,7.2,3.6
				c2.3,0.8,4.5,1.1,6.8,1.1c3.4,0,6-0.8,7.9-2.3c1.9-1.5,2.8-3.7,2.8-6.5c0-2.5-0.6-4.4-1.9-5.8c-1.3-1.3-3.5-2.3-6.7-3.1l-3.6-0.8
				c-4.6-1.1-7.9-2.7-10-4.8c-2.1-2.1-3.1-5-3.1-8.6c0-4.5,1.5-8.1,4.5-10.8c3-2.7,6.9-4.1,11.9-4.1c1.9,0,3.9,0.2,6,0.7
				C337.3,974.5,339.5,975.1,341.8,976z"/>
		</g>
		<g class="st0">
			<path d="M165.4,1049.1v9.3h12v4.2h-12v17.8c0,2.4,0.5,4.1,1.4,5.1c0.9,1,2.5,1.4,4.7,1.4h6v4.3h-6.5c-4,0-6.8-0.8-8.4-2.4
				s-2.4-4.4-2.4-8.4v-17.8h-8.6v-4.2h8.6v-9.3H165.4z"/>
			<path d="M213.7,1072.5v18.7h-5.3v-4.9c-1.1,2-2.6,3.4-4.3,4.3c-1.7,0.9-3.8,1.4-6.3,1.4c-3.3,0-5.9-0.9-7.9-2.8
				c-2-1.9-2.9-4.4-2.9-7.6c0-3.7,1.2-6.4,3.6-8.3c2.4-1.9,5.9-2.8,10.6-2.8h7.1v-0.8c0-2.6-0.7-4.5-2-5.7c-1.3-1.2-3.3-1.8-6.2-1.8
				c-1.8,0-3.6,0.3-5.5,0.8s-3.6,1.3-5.4,2.3v-5.4c2-0.8,3.8-1.3,5.6-1.7c1.8-0.4,3.5-0.6,5.2-0.6c2.7,0,5,0.4,6.8,1.2
				c1.9,0.8,3.4,2,4.6,3.6c0.7,1,1.2,2.2,1.6,3.6C213.6,1067.5,213.7,1069.6,213.7,1072.5z M203.4,1074.7h-1.8c-3.1,0-5.4,0.6-7,1.7
				c-1.6,1.1-2.3,2.7-2.3,4.9c0,2,0.6,3.5,1.8,4.6c1.2,1.1,2.8,1.6,4.9,1.6c2.9,0,5.2-1,6.9-3.1c1.7-2.1,2.5-4.9,2.5-8.5v-1.2H203.4
				z"/>
			<path d="M237.1,1079.3c0,2.4,0.4,4.2,1.3,5.5s2.2,1.8,3.9,1.8h6.2v4.6h-6.7c-3.2,0-5.6-1-7.4-3.1s-2.6-5-2.6-8.8v-29.8h-8.5v-4.2
				h13.8V1079.3z"/>
			<path d="M261.1,1045.6h5.5v26.4l13.9-13.6h6.5l-12.7,12.4l14.7,20.4h-6.5l-11.9-16.9l-3.9,3.8v13.2h-5.5V1045.6z"/>
			<path d="M317.8,1059.5v5.3c-1.5-0.9-3-1.6-4.6-2c-1.5-0.4-3.1-0.7-4.7-0.7c-2.4,0-4.2,0.4-5.4,1.2s-1.8,2-1.8,3.6
				c0,1.5,0.4,2.6,1.3,3.3c0.9,0.7,3.1,1.4,6.6,2.1l2.1,0.4c2.6,0.5,4.6,1.5,6,3c1.4,1.5,2,3.5,2,5.9c0,3.2-1.1,5.8-3.4,7.6
				c-2.3,1.8-5.4,2.7-9.4,2.7c-1.6,0-3.3-0.2-5-0.5c-1.7-0.3-3.6-0.9-5.7-1.5v-5.6c2,1,3.9,1.8,5.7,2.3c1.8,0.5,3.5,0.8,5.1,0.8
				c2.3,0,4.2-0.5,5.4-1.5c1.3-1,1.9-2.3,1.9-4.1c0-2.5-2.4-4.2-7.1-5.2l-0.2-0.1l-2-0.4c-3.1-0.6-5.3-1.6-6.7-3.1
				c-1.4-1.4-2.1-3.4-2.1-5.9c0-3.1,1-5.6,3.1-7.3c2.1-1.7,5.1-2.6,9-2.6c1.7,0,3.4,0.2,5,0.5S316.3,1058.9,317.8,1059.5z"/>
		</g>
		<g class="st0">
		</g>
		<path id="rect7647-4-3-9-1" sodipodi:nodetypes="cccccc" inkscape:connector-curvature="0" class="st1" d="M191.6,1189.5
			 M303.7,1189.5 M129.6,1099.4V957.3h232.2v142.1v6.8c0.4,14.3,1.2,50.5-30.6,76.5c-11.8,9.7-29.1,3.6-34.2,6.8"/>
		<g class="st0">
			<path d="M178.6,1023.3c-1.2,0.7-2.5,1.2-3.8,1.5c-1.3,0.3-2.7,0.5-4.2,0.5c-4.6,0-8.2-1.7-10.8-5c-2.6-3.3-3.8-8-3.8-14.1
				c0-6,1.3-10.7,3.9-14c2.6-3.4,6.2-5,10.8-5c1.5,0,2.9,0.2,4.2,0.5c1.3,0.3,2.6,0.8,3.8,1.5v5.1c-1.2-1-2.5-1.8-3.8-2.3
				c-1.4-0.5-2.8-0.8-4.1-0.8c-3.2,0-5.6,1.2-7.1,3.7c-1.6,2.5-2.4,6.3-2.4,11.3c0,5,0.8,8.8,2.4,11.3c1.6,2.5,4,3.7,7.1,3.7
				c1.4,0,2.8-0.3,4.2-0.8c1.4-0.5,2.6-1.3,3.8-2.3V1023.3z"/>
			<path d="M185.8,987.9h4.9v15.1h13.4v-15.1h4.9v36.7h-4.9v-17.5h-13.4v17.5h-4.9V987.9z"/>
			<path d="M224.3,987.9h5.9l11.1,36.7h-5.1l-2.7-9.6h-12.7l-2.6,9.6h-5.1L224.3,987.9z M227.2,992.3l-5.2,18.8h10.3L227.2,992.3z"
				/>
			<path d="M280.8,998.4c0,9.1-1.4,16-4.3,20.5c-2.8,4.5-7.2,6.8-13,6.8c-5.8,0-10.2-2.2-13-6.7c-2.8-4.5-4.3-11.3-4.3-20.5
				c0-9.2,1.4-16,4.3-20.5c2.8-4.5,7.2-6.8,13-6.8c5.8,0,10.2,2.3,13,6.8C279.3,982.4,280.8,989.3,280.8,998.4z M273.5,998.4
				c0-7.7-0.8-13.2-2.3-16.5s-4.1-5-7.7-5c-3.5,0-6.1,1.7-7.6,5s-2.3,8.8-2.3,16.5c0,7.7,0.8,13.2,2.3,16.5s4.1,5,7.6,5
				c3.5,0,6.1-1.6,7.7-4.9C272.7,1011.7,273.5,1006.1,273.5,998.4z"/>
			<path d="M319.8,973.9v7.2c-2.1-1.4-4.2-2.4-6.4-3.1c-2.1-0.7-4.3-1.1-6.4-1.1c-3.3,0-5.9,0.8-7.8,2.3c-1.9,1.6-2.9,3.7-2.9,6.3
				c0,2.3,0.6,4.1,1.9,5.3c1.3,1.2,3.6,2.2,7,3.1l3.7,0.8c4.8,1.1,8.4,3,10.6,5.4c2.2,2.5,3.3,5.8,3.3,10.1c0,5-1.5,8.8-4.6,11.4
				c-3,2.6-7.5,3.9-13.3,3.9c-2.4,0-4.9-0.3-7.3-0.8c-2.4-0.5-4.9-1.3-7.4-2.4v-7.6c2.6,1.7,5.2,3,7.5,3.8c2.4,0.8,4.7,1.2,7.1,1.2
				c3.5,0,6.3-0.8,8.2-2.4c2-1.6,2.9-3.8,2.9-6.7c0-2.6-0.7-4.6-2-6c-1.3-1.4-3.7-2.4-7-3.2l-3.7-0.9c-4.8-1.1-8.3-2.8-10.4-5
				c-2.2-2.2-3.2-5.2-3.2-9c0-4.7,1.5-8.4,4.6-11.3c3.1-2.8,7.2-4.2,12.4-4.2c2,0,4.1,0.2,6.3,0.7
				C315.1,972.3,317.4,973,319.8,973.9z"/>
		</g>
		<g class="st0">
			<path d="M155.5,1047.5h32.8v5h-13.5v38.8H169v-38.8h-13.5V1047.5z"/>
			<path d="M203.9,1047.5h7.1l13.2,43.7h-6l-3.2-11.4h-15.1l-3.1,11.4h-6L203.9,1047.5z M207.4,1052.7l-6.1,22.4h12.3L207.4,1052.7z
				"/>
			<path d="M231.4,1047.5h5.8v38.8H258v5h-26.6V1047.5z"/>
			<path d="M264.7,1047.5h5.8v19.5l18.2-19.5h6.8l-16.7,17.9l17.2,25.9h-7l-14-21.9l-4.4,4.8v17.1h-5.8V1047.5z"/>
			<path d="M325.4,1049v6c-1.8-1.2-3.5-2-5.3-2.6c-1.8-0.6-3.6-0.9-5.4-0.9c-2.7,0-4.9,0.6-6.5,1.9c-1.6,1.3-2.4,3.1-2.4,5.3
				c0,1.9,0.5,3.4,1.6,4.4c1,1,3,1.9,5.9,2.5l3.1,0.7c4,1,7,2.5,8.8,4.5s2.8,4.8,2.8,8.4c0,4.2-1.3,7.3-3.8,9.5
				c-2.5,2.2-6.2,3.3-11.1,3.3c-2,0-4-0.2-6.1-0.7c-2-0.4-4.1-1.1-6.1-2v-6.3c2.2,1.4,4.3,2.5,6.3,3.1c2,0.7,4,1,5.9,1
				c2.9,0,5.2-0.7,6.9-2c1.6-1.3,2.4-3.2,2.4-5.6c0-2.2-0.6-3.9-1.7-5c-1.1-1.2-3.1-2-5.9-2.7l-3.1-0.7c-4-0.9-6.9-2.3-8.7-4.2
				c-1.8-1.9-2.7-4.3-2.7-7.5c0-3.9,1.3-7,3.9-9.4c2.6-2.4,6-3.5,10.3-3.5c1.7,0,3.4,0.2,5.2,0.6
				C321.5,1047.6,323.4,1048.2,325.4,1049z"/>
		</g>
		<g class="st0">
		</g>
	</g>
	<g id="rad">
		<circle id="XMLID_1_" class="st2" cx="29.1" cy="472.4" r="48.7"/>
		<circle id="XMLID_2_" class="st2" cx="29.1" cy="472.2" r="44.1"/>
		<circle id="XMLID_3_" class="st2" cx="29.1" cy="472.4" r="39.8"/>
		<circle id="XMLID_10_" class="st2" cx="29.1" cy="472.2" r="4.6"/>
		<circle id="XMLID_11_" class="st2" cx="29.1" cy="472.2" r="9.4"/>
		<path id="XMLID_7_" d="M29,432.5l3.2,0c0,0-0.8,12.3,2.9,15.8c0,0-4.9,5.8-4.6,14.6L29,463h-1.4c0.4-9-4.5-14.6-4.5-14.6
			c3.7-3.5,3-15.8,3-15.8l3.2,0"/>
		<path id="XMLID_6_" d="M-5.5,452.6l1.6-2.8c0,0,10.3,6.8,15.1,5.4c0,0,2.5,7.1,10.2,11.2l-0.7,1.2l-0.7,1.3
			c-7.4-4.7-14.8-3.4-14.8-3.4C4.1,460.6-6.9,455-6.9,455l1.6-2.8"/>
		<path id="XMLID_8_" d="M-5.4,492.4l-1.6-2.8c0,0,11-5.5,12.2-10.4c0,0,7.4,1.4,14.8-3.3l0.7,1.3l0.7,1.3
			c-7.8,4.1-10.3,11.1-10.3,11.1c-4.8-1.5-15.1,5.3-15.1,5.3l-1.6-2.8"/>
		<path id="XMLID_9_" d="M29.2,512.2l-3.2,0c0,0,0.8-12.3-2.9-15.8c0,0,4.9-5.7,4.6-14.5l1.4,0h1.4c-0.4,9,4.5,14.5,4.5,14.5
			c-3.7,3.5-3,15.8-3,15.8l-3.2,0"/>
		<path id="XMLID_12_" d="M63.7,492.2L62,495c0,0-10.3-6.8-15.1-5.4c0,0-2.5-7.1-10.2-11.2l0.7-1.2l0.7-1.3
			c7.4,4.7,14.8,3.4,14.8,3.4c1.2,4.9,12.2,10.5,12.2,10.5l-1.6,2.8"/>
		<path id="XMLID_51_" d="M63.5,452.3l1.6,2.8c0,0-11,5.5-12.2,10.4c0,0-7.4-1.4-14.8,3.3l-0.7-1.3l-0.7-1.3
			c7.8-4.1,10.3-11.1,10.3-11.1c4.8,1.5,15.1-5.3,15.1-5.3l1.6,2.8"/>
	</g>
</g>
<g id="mic2">
	<g>
		<path class="st3" d="M77.1,510.2c0,0-3.6-4.9-1-21.5c2.7-16.6,7.7-22,7.7-22c-3.6-4.4-8.2-7.5-13.1-9.3c-1.7,3-5.7,11.4-10,27.9
			c-3.7,14.7-1.2,24.8,0.9,29.8C66.9,515,72.3,513.4,77.1,510.2L77.1,510.2z M77.1,510.2"/>
		<path class="st3" d="M53.2,484.3c3-15.5,7.7-24.7,10-28.4c-7.4-0.6-15,1.5-21.2,6.5c-12.7,10.4-14.7,29.1-4.3,41.8
			c4.2,5.2,9.9,8.6,16,10.1C52.2,508.8,50.5,498.3,53.2,484.3L53.2,484.3z M53.2,484.3"/>
		<path d="M203,496.2c-0.3-4.7-2.3-7.7-2.3-7.7l-90.2-15.5l-33.7-15.1c3.4,9.1,1.8,18,0.8,23.4c-2.6,13-7.3,18.5-7.3,18.5l36.5-0.9
			l90.9,12.5c2.5-3.2,3.9-6.2,4.6-8.9 M94.7,476.3c2.4,2.8,2,7-0.8,9.3c-2.8,2.4-7,2-9.3-0.8c-2.4-2.8-2-6.9,0.8-9.3
			C88.2,473.2,92.3,473.5,94.7,476.3L94.7,476.3z M132.8,485.8c1.1,1.4,1,3.4-0.4,4.5c-1.4,1.2-3.4,1-4.5-0.4
			c-1.1-1.3-1-3.4,0.4-4.5C129.6,484.3,131.6,484.4,132.8,485.8L132.8,485.8z M134.1,485.8"/>
	</g>
</g>
<g id="mic" class="st3">
	<g id="layer1_1_" class="st4">
		<g>
			<g>
				<path id="path1510" class="st5" d="M77.6,487.5L208,511.1l-1.2-7.1L78.2,471.2C78.2,471.2,80.6,480,77.6,487.5L77.6,487.5z"/>
				<path id="path1512" class="st6" d="M78,484.3l79.6,14.4l-0.8-4.3l-78.5-20C78.3,474.4,79.8,479.7,78,484.3L78,484.3z"/>
				<path id="path1514" class="st6" d="M78.9,468.9l129.8,33.4c0,0,1.8,6.9,1.3,9.2c-0.4,2.3-3.6,8.8-9.5,8.1
					c-5.9-0.6-128.7-18.8-128.7-18.8s7.5-6.9,8.4-30.8L78.9,468.9z"/>
			</g>
			<path id="path1516" class="st7" d="M86.2,482.5c0.1,19.1-14.2,33.7-31.8,32.5s-32-17.5-32.1-36.6c-0.1-19.1,14.2-33.7,31.8-32.5
				S86.1,463.4,86.2,482.5z"/>
		</g>
	</g>
	<g>
		<line id="svg_1" class="st8" x1="230.2" y1="463.3" x2="230.2" y2="462.9"/>
		<line id="svg_2" class="st8" x1="229.5" y1="461.6" x2="229.9" y2="461.6"/>
	</g>
</g>
</svg>
