<?xml version="1.0" encoding="utf-8"?>
<!-- Generator: Adobe Illustrator 19.0.0, SVG Export Plug-In . SVG Version: 6.00 Build 0)  -->
<svg version="1.1" xmlns="http://www.w3.org/2000/svg" xmlns:xlink="http://www.w3.org/1999/xlink" x="0px" y="0px"
	 viewBox="-47 248 377.4 299" style="enable-background:new -47 248 377.4 299;" xml:space="preserve">
<style type="text/css">
	.st0{enable-background:new    ;}
	.st1{fill:none;stroke:#000000;stroke-width:3.173;}
	.st2{fill:none;stroke:#000000;stroke-width:3;stroke-miterlimit:10;}
	.st3{fill:none;stroke:#000000;stroke-width:3;}
</style>
<g id="chaOStalks" xmlns:cc="http://creativecommons.org/ns#" xmlns:svg="http://www.w3.org/2000/svg" xmlns:dc="http://purl.org/dc/elements/1.1/" xmlns:rdf="http://www.w3.org/1999/02/22-rdf-syntax-ns#" xmlns:sodipodi="http://sodipodi.sourceforge.net/DTD/sodipodi-0.dtd" xmlns:inkscape="http://www.inkscape.org/namespaces/inkscape" sodipodi:docname="ctreffos-logo.svg" inkscape:version="0.48.5 r10040">
	<g id="layer1" transform="translate(-103.21244,-687.71875)" inkscape:label="Layer 1" inkscape:groupmode="layer">
		<g class="st0">
			<path d="M181.4,1023.2c-1.4,0.7-2.8,1.3-4.2,1.7c-1.5,0.4-3,0.6-4.6,0.6c-5.1,0-9.1-1.9-12-5.6c-2.8-3.7-4.3-8.9-4.3-15.6
				c0-6.7,1.4-11.9,4.3-15.6c2.9-3.7,6.8-5.6,12-5.6c1.6,0,3.2,0.2,4.6,0.6c1.5,0.4,2.9,0.9,4.2,1.7v5.7c-1.3-1.1-2.8-2-4.3-2.5
				c-1.5-0.6-3.1-0.9-4.6-0.9c-3.5,0-6.2,1.4-7.9,4.2c-1.8,2.8-2.6,7-2.6,12.6c0,5.6,0.9,9.8,2.6,12.5c1.8,2.8,4.4,4.2,7.9,4.2
				c1.6,0,3.1-0.3,4.6-0.9c1.5-0.6,2.9-1.4,4.2-2.5V1023.2z"/>
			<path d="M189.4,983.8h5.5v16.7h14.9v-16.7h5.5v40.8h-5.5v-19.4h-14.9v19.4h-5.5V983.8z"/>
			<path d="M232.2,983.8h6.6l12.3,40.8h-5.6l-3-10.6h-14.1l-2.9,10.6h-5.6L232.2,983.8z M235.5,988.7l-5.7,20.9h11.5L235.5,988.7z"
				/>
			<path d="M290.6,998.4c0,9.1-1.4,16-4.3,20.5c-2.8,4.5-7.2,6.8-13,6.8c-5.8,0-10.2-2.2-13-6.7c-2.8-4.5-4.3-11.3-4.3-20.5
				c0-9.2,1.4-16,4.3-20.5c2.8-4.5,7.2-6.8,13-6.8c5.8,0,10.2,2.3,13,6.8C289.2,982.4,290.6,989.3,290.6,998.4z M283.3,998.4
				c0-7.7-0.8-13.2-2.3-16.5s-4.1-5-7.7-5c-3.5,0-6.1,1.7-7.6,5s-2.3,8.8-2.3,16.5c0,7.7,0.8,13.2,2.3,16.5s4.1,5,7.6,5
				c3.5,0,6.1-1.6,7.7-4.9C282.6,1011.7,283.3,1006.1,283.3,998.4z"/>
			<path d="M329.7,973.9v7.2c-2.1-1.4-4.2-2.4-6.4-3.1s-4.3-1.1-6.4-1.1c-3.3,0-5.9,0.8-7.8,2.3c-1.9,1.6-2.9,3.7-2.9,6.3
				c0,2.3,0.6,4.1,1.9,5.3c1.3,1.2,3.6,2.2,7,3.1l3.7,0.8c4.8,1.1,8.4,3,10.6,5.4c2.2,2.5,3.3,5.8,3.3,10.1c0,5-1.5,8.8-4.6,11.4
				c-3,2.6-7.5,3.9-13.3,3.9c-2.4,0-4.9-0.3-7.3-0.8c-2.4-0.5-4.9-1.3-7.4-2.4v-7.6c2.6,1.7,5.2,3,7.5,3.8c2.4,0.8,4.7,1.2,7.1,1.2
				c3.5,0,6.3-0.8,8.2-2.4c2-1.6,2.9-3.8,2.9-6.7c0-2.6-0.7-4.6-2-6c-1.3-1.4-3.7-2.4-7-3.2l-3.7-0.9c-4.8-1.1-8.3-2.8-10.4-5
				c-2.2-2.2-3.2-5.2-3.2-9c0-4.7,1.5-8.4,4.6-11.3c3.1-2.8,7.2-4.2,12.4-4.2c2,0,4.1,0.2,6.3,0.7S327.3,973,329.7,973.9z"/>
		</g>
		<g class="st0">
			<path d="M157.3,1047.5h32.8v5h-13.5v38.8h-5.8v-38.8h-13.5V1047.5z"/>
			<path d="M205.7,1047.5h7.1l13.2,43.7h-6l-3.2-11.4h-15.1l-3.1,11.4h-6L205.7,1047.5z M209.2,1052.7l-6.1,22.4h12.3L209.2,1052.7z
				"/>
			<path d="M233.2,1047.5h5.8v38.8h20.8v5h-26.6V1047.5z"/>
			<path d="M266.5,1047.5h5.8v19.5l18.2-19.5h6.8l-16.7,17.9l17.2,25.9h-7l-14-21.9l-4.4,4.8v17.1h-5.8V1047.5z"/>
			<path d="M327.2,1049v6c-1.8-1.2-3.5-2-5.3-2.6c-1.8-0.6-3.6-0.9-5.4-0.9c-2.7,0-4.9,0.6-6.5,1.9c-1.6,1.3-2.4,3.1-2.4,5.3
				c0,1.9,0.5,3.4,1.6,4.4c1,1,3,1.9,5.9,2.5l3.1,0.7c4,1,7,2.5,8.8,4.5s2.8,4.8,2.8,8.4c0,4.2-1.3,7.3-3.8,9.5
				c-2.5,2.2-6.2,3.3-11.1,3.3c-2,0-4-0.2-6.1-0.7c-2-0.4-4.1-1.1-6.1-2v-6.3c2.2,1.4,4.3,2.5,6.3,3.1c2,0.7,4,1,5.9,1
				c2.9,0,5.2-0.7,6.9-2c1.6-1.3,2.4-3.2,2.4-5.6c0-2.2-0.6-3.9-1.7-5c-1.1-1.2-3.1-2-5.9-2.7l-3.1-0.7c-4-0.9-6.9-2.3-8.7-4.2
				c-1.8-1.9-2.7-4.3-2.7-7.5c0-3.9,1.3-7,3.9-9.4c2.6-2.4,6-3.5,10.3-3.5c1.7,0,3.4,0.2,5.2,0.6
				C323.2,1047.6,325.2,1048.2,327.2,1049z"/>
		</g>
		<path id="rect7647-4-3-9-1" sodipodi:nodetypes="cccccc" inkscape:connector-curvature="0" class="st1" d="M191.6,1189.5
			 M303.7,1189.5 M129.6,1099.4V957.3h232.2v86.4"/>
	</g>
	<g id="rad">
		<circle id="XMLID_1_" class="st2" cx="29.1" cy="472.4" r="48.7"/>
		<circle id="XMLID_2_" class="st2" cx="29.1" cy="472.2" r="44.1"/>
		<circle id="XMLID_3_" class="st2" cx="29.1" cy="472.4" r="39.8"/>
		<circle id="XMLID_10_" class="st2" cx="29.1" cy="472.2" r="4.6"/>
		<circle id="XMLID_11_" class="st2" cx="29.1" cy="472.2" r="9.4"/>
		<path id="XMLID_7_" d="M29,432.5l3.2,0c0,0-0.8,12.3,2.9,15.8c0,0-4.9,5.8-4.6,14.6L29,463h-1.4c0.4-9-4.5-14.6-4.5-14.6
			c3.7-3.5,3-15.8,3-15.8l3.2,0"/>
		<path id="XMLID_6_" d="M-5.5,452.6l1.6-2.8c0,0,10.3,6.8,15.1,5.4c0,0,2.5,7.1,10.2,11.2l-0.7,1.2l-0.7,1.3
			c-7.4-4.7-14.8-3.4-14.8-3.4C4.1,460.6-6.9,455-6.9,455l1.6-2.8"/>
		<path id="XMLID_8_" d="M-5.4,492.4l-1.6-2.8c0,0,11-5.5,12.2-10.4c0,0,7.4,1.4,14.8-3.3l0.7,1.3l0.7,1.3
			c-7.8,4.1-10.3,11.1-10.3,11.1c-4.8-1.5-15.1,5.3-15.1,5.3l-1.6-2.8"/>
		<path id="XMLID_9_" d="M29.2,512.2l-3.2,0c0,0,0.8-12.3-2.9-15.8c0,0,4.9-5.7,4.6-14.5l1.4,0h1.4c-0.4,9,4.5,14.5,4.5,14.5
			c-3.7,3.5-3,15.8-3,15.8l-3.2,0"/>
		<path id="XMLID_12_" d="M63.7,492.2L62,495c0,0-10.3-6.8-15.1-5.4c0,0-2.5-7.1-10.2-11.2l0.7-1.2l0.7-1.3
			c7.4,4.7,14.8,3.4,14.8,3.4c1.2,4.9,12.2,10.5,12.2,10.5l-1.6,2.8"/>
		<path id="XMLID_51_" d="M63.5,452.3l1.6,2.8c0,0-11,5.5-12.2,10.4c0,0-7.4-1.4-14.8,3.3l-0.7-1.3l-0.7-1.3
			c7.8-4.1,10.3-11.1,10.3-11.1c4.8,1.5,15.1-5.3,15.1-5.3l1.6,2.8"/>
	</g>
</g>
<g id="mic2">
	<g>
		<path d="M240.5,388.4c0,0,6.1,0.5,17,13.7c10.8,13.1,11.6,20.5,11.6,20.5c5.7,0.2,11.1-1.2,15.8-3.8c-1.2-3.3-4.8-12-14.5-26.2
			c-8.6-12.7-18-17.5-23.2-19.2C243.7,377.5,241.4,382.7,240.5,388.4L240.5,388.4z M240.5,388.4"/>
		<path d="M276.2,387.7c9.8,12.7,13.6,22.3,14.9,26.6c5.4-5.2,8.9-12.4,9.2-20.4c0.7-16.6-12.2-30.6-28.8-31.3
			c-6.8-0.3-13.2,1.7-18.3,5.3C258.3,370.5,267.3,376.2,276.2,387.7L276.2,387.7z M276.2,387.7"/>
		<path d="M153.5,491c3.7,3,7.3,3.5,7.3,3.5l73.3-56.5l30-14.5c-7.6-25.2-25.5-31.6-25.5-31.6l-21.3,25.6l-71.6,59.1
			c0.7,4,2,7.1,3.5,9.6 M242.5,424c-3.7-0.1-6.6-3.3-6.4-6.9c0.1-3.7,3.3-6.6,7-6.4c3.7,0.1,6.5,3.3,6.4,7
			C249.3,421.3,246.2,424.2,242.5,424L242.5,424z M208.3,446.5c-1.8-0.1-3.2-1.6-3.1-3.4c0.1-1.8,1.6-3.2,3.4-3.1
			c1.8,0.1,3.2,1.6,3.1,3.4C211.6,445.2,210.1,446.6,208.3,446.5L208.3,446.5z M208.4,446.9"/>
	</g>
	<path class="st3" d="M179.8,468.8c-9.1,6.8-29,20.7-41.1,26.8c-48.4,24.3-88.8,27.7-116.4,25.1"/>
</g>
</svg>
